<?xml version="1.0" standalone="no"?>
<!DOCTYPE svg PUBLIC "-//W3C//DTD SVG 20010904//EN"
 "http://www.w3.org/TR/2001/REC-SVG-20010904/DTD/svg10.dtd">
<svg version="1.0" xmlns="http://www.w3.org/2000/svg"
 width="832.000000pt" height="832.000000pt" viewBox="0 0 832.000000 832.000000"
 preserveAspectRatio="xMidYMid meet">

<g transform="translate(0.000000,832.000000) scale(0.100000,-0.100000)"
fill="#2dff91" stroke="none">
<path d="M3965 7965 c-5 -1 -36 -8 -68 -15 -32 -6 -56 -15 -52 -18 3 -3 61 -7
128 -7 147 -2 269 -33 327 -85 l35 -31 -30 7 c-174 40 -261 29 -383 -47 -34
-22 -68 -37 -74 -33 -6 4 -8 3 -4 -4 3 -5 -22 -37 -56 -70 -71 -68 -134 -163
-124 -188 5 -12 16 -1 45 42 22 33 63 82 92 109 l53 50 -61 -70 c-70 -82 -103
-128 -103 -145 0 -6 17 10 39 37 21 26 58 66 82 89 24 23 57 57 72 77 38 48
114 96 184 114 86 22 211 7 248 -31 22 -22 6 -27 -29 -9 -17 9 -33 19 -36 22
-6 8 -140 8 -140 0 0 -3 -13 -6 -29 -7 -16 0 -42 -7 -58 -15 -15 -8 -34 -12
-42 -9 -8 3 -11 0 -7 -7 4 -6 0 -11 -10 -11 -10 0 -14 -3 -11 -7 4 -3 -2 -13
-13 -20 -11 -8 -50 -51 -86 -96 -36 -45 -71 -89 -77 -97 -165 -206 -234 -425
-242 -763 -1 -76 -5 -140 -8 -143 -9 -10 -55 61 -66 101 -30 117 -33 180 -12
298 27 151 45 219 56 210 4 -5 5 -3 2 3 -6 11 18 98 33 119 16 23 18 42 3 42
-30 0 -85 -121 -123 -272 -75 -294 -133 -963 -110 -1267 14 -190 36 -275 101
-401 11 -21 16 -43 13 -49 -4 -7 -2 -8 4 -4 7 4 26 -16 48 -49 20 -30 41 -55
45 -55 5 0 9 -4 9 -10 0 -5 -7 -10 -16 -10 -8 0 -12 -5 -9 -10 5 -8 11 -8 20
0 9 8 23 0 56 -33 227 -226 404 -309 659 -309 193 0 350 50 485 156 95 74 128
93 162 94 62 1 159 33 278 91 179 87 269 182 318 336 52 163 25 339 -112 733
-33 95 -69 212 -81 260 -26 110 -79 420 -72 427 3 3 497 5 1098 5 l1092 0 6
-25 c8 -33 8 -2697 -1 -2989 l-6 -229 -27 -30 c-21 -23 -37 -31 -77 -34 l-52
-5 39 -57 c74 -110 126 -256 144 -407 l11 -92 71 82 c124 141 196 235 424 551
142 198 144 199 148 187 4 -12 -14 -40 -161 -247 -179 -252 -298 -403 -414
-528 -40 -43 -73 -83 -73 -90 -1 -45 -23 -154 -33 -163 -7 -6 -39 -21 -72 -34
-33 -13 -73 -29 -90 -36 -58 -25 -401 -151 -495 -182 -93 -30 -404 -124 -610
-184 -58 -17 -114 -37 -125 -45 -19 -13 -18 -14 10 -8 48 11 617 176 650 189
17 7 95 34 175 61 80 27 239 86 354 132 l210 83 39 -27 c21 -15 60 -52 87 -82
l48 -55 50 43 c73 60 235 234 302 321 141 186 277 439 344 643 l36 109 0 217
0 217 -32 19 c-73 43 -188 11 -316 -87 -62 -48 -218 -200 -285 -278 -35 -41
-47 -50 -47 -35 0 11 -1 650 -1 1420 -1 770 -4 1535 -8 1701 l-6 301 -35 69
c-25 50 -49 79 -85 106 -96 72 -11 68 -1290 68 l-1152 0 -38 58 c-63 97 -199
222 -285 264 -97 46 -143 53 -229 32 l-68 -17 -54 26 c-30 14 -81 30 -113 36
-53 10 -285 14 -311 6z m-48 -31 c-3 -3 -12 -4 -19 -1 -8 3 -5 6 6 6 11 1 17
-2 13 -5z m368 -254 c33 -16 35 -18 10 -12 -16 4 -73 7 -126 7 -129 0 -178
-25 -279 -145 -12 -14 -8 -4 9 21 45 68 109 118 181 140 51 15 163 9 205 -11z
m-424 -230 c-9 -8 -28 -32 -41 -52 -13 -20 -29 -34 -34 -31 -5 3 -6 1 -2 -5 4
-6 -1 -20 -11 -30 -10 -10 -19 -27 -20 -37 -1 -17 1 -17 17 5 10 14 34 42 53
63 32 36 35 37 40 18 3 -12 1 -19 -3 -16 -5 3 -11 1 -14 -3 -3 -5 5 -9 17 -8
16 1 21 7 19 21 -3 16 -1 17 9 8 9 -9 5 -23 -21 -62 -18 -28 -37 -48 -43 -44
-5 3 -7 1 -4 -4 4 -6 -8 -37 -26 -70 -18 -32 -36 -66 -40 -76 -4 -10 -11 -15
-17 -12 -5 3 -7 0 -4 -9 3 -8 -3 -31 -14 -53 -48 -96 -102 -304 -105 -404 -2
-60 -1 -62 26 -70 15 -4 28 -3 28 2 1 5 2 12 3 17 1 4 6 34 10 67 20 154 82
357 149 492 35 69 144 224 168 239 7 4 2 -7 -12 -25 -149 -199 -268 -522 -269
-728 0 -82 -7 -76 113 -92 118 -16 112 -19 126 47 15 65 57 192 69 204 4 4 5
-16 3 -44 -6 -88 9 -218 25 -218 11 0 14 16 14 69 0 113 19 261 44 351 l24 85
1 -252 1 -253 56 0 56 0 -7 303 c-4 166 -5 300 -2 297 12 -12 26 -224 27 -409
l2 -192 96 3 97 3 -3 150 c-2 82 -1 147 2 145 3 -4 21 -167 28 -261 2 -25 5
-27 56 -28 49 -1 229 22 275 35 13 4 17 16 17 56 0 59 5 60 14 3 4 -21 11 -42
16 -45 11 -7 40 -244 40 -325 0 -32 -8 -67 -24 -100 -14 -27 -40 -84 -60 -125
-44 -94 -124 -192 -206 -250 -106 -76 -102 -71 -102 -122 0 -25 5 -55 11 -66
11 -21 94 -57 153 -67 49 -9 123 -49 126 -69 2 -10 -13 -53 -34 -95 -46 -95
-159 -211 -251 -259 -204 -107 -448 -92 -641 40 -62 43 -146 150 -197 251 -41
80 -58 124 -36 88 8 -12 19 -10 68 9 32 13 89 39 127 58 71 37 86 56 99 129 6
30 3 33 -58 73 -75 49 -181 157 -222 227 -15 26 -42 84 -60 128 l-32 80 0
-116 c-1 -171 31 -441 64 -546 4 -13 3 -23 -2 -23 -11 0 -36 96 -59 225 -13
71 -17 168 -19 456 -1 202 -6 372 -9 378 -4 6 -1 14 7 17 12 4 15 29 16 117 2
122 20 256 49 357 25 86 91 234 120 267 12 14 22 29 22 32 0 3 10 17 23 31 12
14 33 40 45 57 19 27 26 30 37 20 11 -10 11 -14 -4 -27z m3482 -74 c60 -29 67
-54 67 -221 l0 -145 -1102 2 -1102 3 -22 105 c-12 58 -31 142 -41 187 -11 46
-19 84 -17 86 1 1 492 2 1091 2 1045 0 1089 -1 1126 -19z"/>
<path d="M4720 6479 c-19 -5 -82 -16 -140 -25 -108 -16 -137 -28 -110 -44 53
-33 226 -18 291 24 67 45 47 67 -41 45z"/>
<path d="M3662 6468 c7 -20 59 -46 125 -63 69 -18 184 -17 190 2 5 15 -39 29
-167 53 -123 23 -153 25 -148 8z"/>
<path d="M3776 6345 c-53 -49 -19 -135 53 -135 49 0 81 32 81 82 0 70 -81 102
-134 53z"/>
<path d="M4570 6343 c-16 -21 -20 -37 -16 -62 8 -48 32 -71 77 -71 40 0 65 18
80 57 14 37 11 52 -16 78 -35 36 -96 35 -125 -2z"/>
<path d="M4190 7870 c0 -5 5 -10 11 -10 5 0 7 5 4 10 -3 6 -8 10 -11 10 -2 0
-4 -4 -4 -10z"/>
<path d="M4228 7853 c7 -3 16 -2 19 1 4 3 -2 6 -13 5 -11 0 -14 -3 -6 -6z"/>
<path d="M3574 7804 c-18 -14 -18 -15 4 -4 12 6 22 13 22 15 0 8 -5 6 -26 -11z"/>
<path d="M3565 7770 c-3 -6 1 -7 9 -4 18 7 21 14 7 14 -6 0 -13 -4 -16 -10z"/>
<path d="M1060 7538 c-74 -28 -149 -105 -181 -183 l-24 -60 -3 -1800 c-3
-2000 -9 -1817 65 -1939 29 -48 45 -63 87 -82 28 -13 66 -25 85 -26 32 -3 33
-2 56 62 12 36 34 85 48 110 15 25 27 48 27 51 0 4 -19 9 -42 12 -53 7 -90 35
-105 78 -9 26 -12 421 -12 1632 l-1 1597 1059 -2 c836 -2 1061 0 1070 10 9 9
-203 12 -1060 12 l-1072 0 5 145 c5 161 12 180 79 220 33 20 52 20 1091 20
581 0 1058 2 1060 5 2 3 18 40 35 83 l32 77 -1122 -1 c-1115 0 -1122 0 -1177
-21z"/>
<path d="M3335 7420 c9 -16 18 -30 21 -30 2 0 -2 14 -11 30 -9 17 -18 30 -21
30 -2 0 2 -13 11 -30z"/>
<path d="M3444 7334 c-11 -16 -30 -51 -42 -79 -26 -61 -55 -128 -57 -135 -1
-3 -9 -31 -19 -64 -10 -32 -21 -54 -25 -47 -4 6 -7 -4 -8 -22 0 -17 -6 -45
-13 -62 -8 -16 -15 -39 -16 -50 -2 -11 -10 -47 -18 -80 -9 -32 -16 -71 -17
-85 l-1 -25 -8 25 c-4 14 -9 21 -9 15 -1 -5 -5 -4 -10 3 -6 10 -10 3 -15 -23
-4 -20 -10 -44 -13 -52 -5 -12 -3 -14 8 -8 10 6 10 4 -2 -11 -25 -30 -52 -165
-39 -195 10 -22 10 -22 7 10 -2 18 2 50 9 70 13 36 13 35 8 -20 -4 -38 -3 -59
5 -63 8 -5 10 -1 6 16 -3 13 -2 35 4 48 21 53 4 -104 -29 -265 -25 -121 -48
-253 -60 -348 -19 -151 -8 -355 25 -456 8 -25 15 -55 15 -68 0 -13 4 -22 8
-19 4 2 23 -18 41 -45 19 -27 38 -49 43 -49 10 0 0 41 -11 50 -27 21 -68 183
-80 314 -15 152 3 314 68 631 16 77 34 169 40 205 70 435 81 480 206 818 29
81 29 111 -1 66z"/>
<path d="M3486 7345 c-9 -26 -7 -32 5 -12 6 10 9 21 6 23 -2 3 -7 -2 -11 -11z"/>
<path d="M3231 7184 c0 -11 3 -14 6 -6 3 7 2 16 -1 19 -3 4 -6 -2 -5 -13z"/>
<path d="M3216 7117 c3 -10 9 -15 12 -12 3 3 0 11 -7 18 -10 9 -11 8 -5 -6z"/>
<path d="M3250 7120 c0 -5 5 -10 11 -10 5 0 7 5 4 10 -3 6 -8 10 -11 10 -2 0
-4 -4 -4 -10z"/>
<path d="M3071 6434 c0 -11 3 -14 6 -6 3 7 2 16 -1 19 -3 4 -6 -2 -5 -13z"/>
<path d="M3150 6395 c0 -8 2 -15 4 -15 2 0 6 7 10 15 3 8 1 15 -4 15 -6 0 -10
-7 -10 -15z"/>
<path d="M3131 6274 c0 -11 3 -14 6 -6 3 7 2 16 -1 19 -3 4 -6 -2 -5 -13z"/>
<path d="M3101 6234 c0 -11 3 -14 6 -6 3 7 2 16 -1 19 -3 4 -6 -2 -5 -13z"/>
<path d="M3171 5854 c0 -11 3 -14 6 -6 3 7 2 16 -1 19 -3 4 -6 -2 -5 -13z"/>
<path d="M3301 5714 c0 -11 3 -14 6 -6 3 7 2 16 -1 19 -3 4 -6 -2 -5 -13z"/>
<path d="M3301 5634 c0 -11 3 -14 6 -6 3 7 2 16 -1 19 -3 4 -6 -2 -5 -13z"/>
<path d="M3301 5534 c0 -11 3 -14 6 -6 3 7 2 16 -1 19 -3 4 -6 -2 -5 -13z"/>
<path d="M3368 5458 c-3 -7 -2 -22 2 -32 6 -19 7 -19 12 1 7 25 -6 53 -14 31z"/>
<path d="M3176 5445 c-9 -26 -7 -32 5 -12 6 10 9 21 6 23 -2 3 -7 -2 -11 -11z"/>
<path d="M3051 5433 c7 -12 15 -20 18 -17 3 2 -3 12 -13 22 -17 16 -18 16 -5
-5z"/>
<path d="M3181 5394 c0 -11 3 -14 6 -6 3 7 2 16 -1 19 -3 4 -6 -2 -5 -13z"/>
<path d="M3215 5330 c3 -5 8 -10 11 -10 2 0 4 5 4 10 0 6 -5 10 -11 10 -5 0
-7 -4 -4 -10z"/>
<path d="M3443 5314 c-3 -8 -1 -20 6 -27 8 -8 11 -8 11 2 0 11 3 11 17 0 14
-12 14 -10 -1 14 -21 31 -24 33 -33 11z"/>
<path d="M3460 5261 c0 -5 5 -13 10 -16 6 -3 10 -2 10 4 0 5 -4 13 -10 16 -5
3 -10 2 -10 -4z"/>
<path d="M3246 5236 c3 -8 13 -17 22 -21 13 -5 13 -2 -3 15 -21 24 -26 25 -19
6z"/>
<path d="M3527 5213 c-4 -3 -7 -11 -7 -17 0 -6 5 -4 11 4 8 11 12 12 16 3 2
-7 9 -13 15 -13 6 0 6 6 -2 15 -14 16 -23 19 -33 8z"/>
<path d="M3397 5179 c7 -7 15 -10 18 -7 3 3 -2 9 -12 12 -14 6 -15 5 -6 -5z"/>
<path d="M3530 5158 c0 -19 2 -20 10 -8 13 19 13 30 0 30 -5 0 -10 -10 -10
-22z"/>
<path d="M3570 5172 c0 -7 5 -12 10 -12 6 0 10 -7 10 -15 0 -8 5 -15 10 -15
16 0 12 15 -10 35 -11 10 -20 13 -20 7z"/>
<path d="M3560 5140 c0 -5 5 -10 11 -10 5 0 7 5 4 10 -3 6 -8 10 -11 10 -2 0
-4 -4 -4 -10z"/>
<path d="M5211 4944 c-27 -98 -34 -273 -22 -567 11 -264 31 -540 47 -639 l6
-38 -484 0 c-265 0 -674 -3 -907 -6 -233 -4 -465 -3 -515 1 l-93 7 8 46 c4 26
13 146 19 267 6 121 20 321 31 445 27 305 35 500 22 500 -17 0 -23 -26 -23
-94 0 -34 -9 -156 -20 -271 -11 -116 -20 -217 -20 -225 0 -8 -29 55 -63 140
-35 85 -76 180 -92 210 -44 86 -124 200 -141 200 -17 0 -16 -3 32 -70 56 -80
111 -191 188 -386 l76 -191 -17 -267 c-11 -171 -20 -266 -27 -266 -21 1 -107
124 -151 214 -24 50 -64 162 -90 249 -73 250 -138 412 -179 446 -27 22 -19 -6
24 -94 22 -44 60 -145 86 -225 25 -80 61 -194 79 -253 39 -122 105 -243 178
-323 26 -29 44 -55 40 -57 -4 -3 -107 -6 -228 -6 -194 -1 -223 -4 -244 -19
-44 -32 -64 -69 -69 -125 -4 -47 -7 -54 -22 -50 -31 8 -205 -95 -189 -111 4
-4 45 14 93 39 48 25 93 45 101 45 12 0 15 -15 15 -70 0 -45 -4 -70 -11 -70
-6 0 -47 -21 -91 -47 -101 -60 -242 -203 -200 -203 4 0 32 25 62 56 45 45 215
164 235 164 3 0 5 -51 5 -114 l0 -113 -80 -72 c-44 -40 -89 -85 -100 -101 -40
-56 -4 -37 85 46 l90 83 3 -84 3 -85 -59 -58 c-59 -57 -108 -139 -132 -219
-10 -33 -17 -41 -33 -37 -16 3 -343 103 -777 239 -413 128 -494 158 -534 193
-15 14 -18 14 -14 2 6 -18 67 -62 78 -55 5 3 10 2 12 -3 6 -15 101 -49 318
-117 118 -36 292 -90 385 -120 318 -101 491 -153 532 -159 41 -7 41 -7 53 31
22 69 84 176 125 217 l40 41 3 -284 c1 -156 1 -286 -1 -288 -2 -1 -48 4 -103
12 -140 22 -451 31 -539 16 -262 -46 -434 -199 -464 -416 -30 -212 72 -411
283 -551 31 -20 55 -39 53 -41 -7 -6 -190 34 -257 57 -36 12 -89 35 -119 51
-29 15 -57 26 -62 23 -12 -7 1 -34 16 -34 7 0 32 -11 56 -25 51 -28 236 -78
354 -95 44 -6 102 -18 129 -26 27 -8 58 -14 69 -14 16 0 17 3 7 15 -15 19 -13
19 39 0 23 -8 115 -31 204 -51 89 -20 164 -38 167 -41 3 -3 -10 -3 -28 0 -58
11 -231 -75 -224 -111 2 -12 0 -13 -6 -5 -6 9 -17 10 -39 4 -17 -5 -33 -8 -35
-6 -2 2 -61 11 -132 20 -145 18 -440 65 -595 96 -68 14 -107 17 -113 11 -13
-13 71 -32 310 -72 231 -39 463 -70 518 -70 24 0 44 -3 44 -6 0 -3 -17 -25
-39 -47 -78 -84 -93 -103 -117 -144 -38 -64 -44 -96 -29 -154 29 -110 111
-202 193 -215 30 -5 59 3 147 38 61 24 131 50 157 57 28 8 45 18 41 24 -4 7 0
8 11 4 10 -4 48 1 84 10 55 14 119 17 357 18 160 1 325 5 368 9 l77 8 0 32 c0
17 -3 69 -7 115 -6 77 -7 82 -20 60 -9 -15 -12 -17 -9 -6 16 51 17 72 6 139
-7 40 -15 78 -19 83 -7 12 -10 55 -5 76 3 12 27 19 92 28 48 7 116 19 152 26
58 13 66 12 77 -2 7 -9 14 -20 15 -25 3 -9 135 35 461 156 229 84 235 85 268
49 85 -92 173 -313 195 -492 l7 -53 41 6 c23 4 80 16 129 27 l87 21 0 51 c-1
153 -121 412 -245 526 -51 47 -63 49 -160 22 -38 -11 -72 -18 -74 -16 -2 3 2
7 10 9 8 3 39 14 69 26 89 33 118 28 171 -27 135 -142 235 -346 246 -504 l6
-77 34 10 c18 5 41 7 51 4 9 -3 30 1 46 9 16 9 31 13 33 11 2 -2 -14 -12 -36
-22 -22 -9 -38 -21 -36 -25 3 -4 -2 -10 -10 -13 -13 -4 -14 -2 -5 14 9 16 8
20 -5 20 -8 0 -14 -3 -13 -8 1 -4 -4 -31 -11 -60 -7 -29 -10 -59 -7 -67 3 -8
2 -15 -2 -15 -4 0 -8 -8 -9 -18 -1 -16 11 -21 75 -30 122 -19 296 -31 588 -41
300 -11 441 -31 577 -82 43 -16 83 -26 89 -23 7 5 8 2 3 -6 -6 -10 -4 -12 9
-7 9 4 15 3 12 -2 -9 -14 98 -45 130 -37 64 16 184 186 184 260 0 49 -46 130
-117 206 -39 41 -68 76 -65 77 4 1 86 7 182 12 332 20 678 78 878 146 114 39
207 84 196 95 -6 6 -33 -2 -74 -21 -176 -85 -535 -159 -905 -189 -229 -18
-304 -16 -353 9 -23 12 -48 19 -55 15 -7 -4 -9 -3 -4 1 13 15 -47 36 -155 56
-32 6 -58 15 -58 19 0 4 21 10 46 14 25 3 97 27 160 52 63 26 118 44 121 40 4
-3 -1 -6 -9 -6 -9 0 -21 -7 -28 -15 -7 -8 -11 -15 -9 -15 21 0 399 67 484 85
207 45 383 107 500 176 105 62 120 68 134 60 9 -6 -7 -23 -51 -56 -51 -39 -57
-47 -34 -41 36 9 80 43 95 74 15 32 14 40 -8 47 -19 6 -77 -20 -180 -81 -115
-67 -249 -109 -566 -178 -88 -19 -169 -38 -179 -42 -39 -15 -5 14 61 52 37 21
99 71 138 109 120 120 171 248 162 408 -4 75 -10 99 -40 160 -64 129 -193 232
-343 272 -123 34 -488 29 -684 -9 l-65 -12 3 231 3 230 21 -25 c23 -29 65
-110 97 -192 23 -57 45 -78 55 -53 3 9 0 12 -10 8 -10 -4 -14 2 -14 20 0 59
-91 232 -137 260 -9 6 -13 37 -13 112 0 58 3 105 6 105 3 0 27 -18 53 -40 46
-39 71 -50 71 -31 0 5 -4 11 -9 13 -5 2 -35 27 -65 56 l-56 54 0 154 c0 141 1
154 18 154 30 0 175 -95 220 -144 40 -44 62 -57 62 -37 0 15 -67 97 -102 123
-33 25 -141 80 -181 92 -15 5 -18 16 -16 72 l2 66 31 -6 c17 -4 68 -25 114
-47 46 -22 86 -38 89 -35 22 22 -77 81 -182 108 l-50 13 3 44 c3 33 -3 52 -23
83 -37 56 -73 68 -208 68 -63 0 -161 3 -219 6 -97 6 -105 8 -100 26 2 10 29
40 58 66 73 63 138 148 174 224 16 35 47 138 69 228 43 181 65 249 105 327 30
60 31 63 12 63 -33 0 -104 -187 -146 -384 -30 -137 -63 -229 -103 -290 -40
-59 -152 -183 -160 -176 -3 3 -15 109 -26 236 -24 266 -29 233 69 474 78 192
104 245 174 350 66 99 62 133 -6 47 -63 -81 -111 -176 -193 -379 l-72 -179 -6
113 c-12 203 -6 359 19 501 9 49 -12 50 -25 1z m-2053 -1466 c-4 -10 -40 -13
-138 -13 -98 0 -134 3 -137 13 -4 9 28 12 137 12 109 0 141 -3 138 -12z m742
-88 c0 -20 -7 -20 -372 -20 -400 0 -478 4 -478 26 0 12 73 14 425 14 418 0
425 0 425 -20z m-317 -50 c168 0 177 -1 177 -19 0 -19 -8 -19 -257 -15 -327 6
-383 10 -383 31 0 14 17 15 143 10 78 -4 222 -7 320 -7z m427 -21 c0 -19 -5
-20 -110 -18 -98 3 -110 5 -110 21 0 16 11 18 110 18 104 0 110 -1 110 -21z
m-120 -64 c0 -13 -44 -15 -315 -15 -293 0 -315 1 -315 18 0 16 21 17 315 14
269 -2 315 -5 315 -17z m560 -5 c0 -20 -5 -21 -246 -20 -135 1 -252 4 -260 7
-8 3 -14 11 -14 19 0 12 44 14 260 14 255 0 260 0 260 -20z m-1302 3 c-10 -2
-26 -2 -35 0 -10 3 -2 5 17 5 19 0 27 -2 18 -5z m1422 -8 c0 -10 -10 -15 -29
-15 -16 0 -31 6 -35 15 -4 12 3 15 29 15 24 0 35 -5 35 -15z m-680 -53 c0 -18
-16 -19 -279 -21 -237 -2 -279 0 -284 12 -3 8 -3 18 0 21 4 3 132 6 285 6 263
0 278 -1 278 -18z m1018 -8 c3 -12 -64 -14 -484 -12 -373 2 -488 6 -491 15 -6
16 144 19 622 15 294 -3 351 -6 353 -18z m82 6 c0 -11 -7 -20 -15 -20 -8 0
-15 9 -15 20 0 11 7 20 15 20 8 0 15 -9 15 -20z m-1462 -77 c3 -10 -21 -13
-97 -13 -84 0 -101 3 -101 15 0 13 15 15 97 13 66 -2 98 -7 101 -15z m408 -56
c4 -4 5 -9 3 -11 -2 -2 -141 -5 -309 -7 -276 -4 -305 -2 -308 12 -3 15 25 17
302 15 167 -1 308 -5 312 -9z m94 -72 c0 -13 -46 -15 -355 -15 -309 0 -355 2
-355 15 0 13 46 15 355 15 309 0 355 -2 355 -15z m-662 -70 c13 -13 -16 -25
-59 -25 -43 0 -49 2 -49 21 0 20 3 21 52 15 29 -4 54 -9 56 -11z m1395 -46 c9
-6 17 -13 17 -17 0 -4 -162 -8 -360 -9 -309 -2 -360 0 -360 12 0 12 35 15 218
18 399 6 467 5 485 -4z m-1373 -20 c0 -5 -25 -9 -55 -9 -56 0 -77 16 -27 22
38 4 82 -3 82 -13z m620 6 c0 -13 -35 -15 -259 -15 -236 0 -283 4 -264 24 3 3
123 6 265 6 223 0 258 -2 258 -15z m884 6 c7 -10 -30 -19 -56 -13 -10 2 -18 8
-18 13 0 12 67 12 74 0z m156 -61 c0 -20 -7 -20 -881 -20 -700 0 -880 3 -877
13 6 16 268 22 1111 25 641 2 647 2 647 -18z m88 -3 c4 -21 -27 -35 -38 -17
-12 19 0 42 19 38 9 -2 17 -11 19 -21z m-1373 -57 c10 -16 -8 -18 -247 -25
-199 -5 -228 -4 -228 9 0 12 18 16 93 19 224 8 376 7 382 -3z m-307 -77 c-3
-15 -16 -19 -77 -21 -41 -2 -78 1 -84 7 -21 21 7 31 84 31 71 0 80 -2 77 -17z
m256 -59 c44 -17 1 -24 -144 -24 -146 0 -173 4 -153 23 8 9 276 9 297 1z m536
-9 c0 -13 -33 -15 -240 -15 -207 0 -240 2 -240 15 0 13 33 15 240 15 207 0
240 -2 240 -15z m-490 -59 c0 -16 -82 -26 -219 -26 -97 0 -129 8 -117 29 5 7
62 11 172 11 131 0 164 -3 164 -14z m150 -1 c0 -12 -14 -15 -65 -15 -51 0 -65
3 -65 15 0 12 14 15 65 15 51 0 65 -3 65 -15z m468 -3 c3 -10 -41 -12 -214
-10 -167 2 -218 6 -222 16 -3 10 39 12 214 10 165 -2 218 -6 222 -16z m-438
-52 c35 -23 -21 -30 -267 -30 -217 0 -253 2 -253 15 0 12 32 15 202 17 111 2
225 4 253 5 27 2 57 -2 65 -7z m680 -5 c0 -13 -29 -15 -192 -17 -262 -4 -302
-2 -306 11 -2 7 -9 6 -19 -4 -19 -20 -143 -21 -143 -2 0 8 3 17 7 20 3 4 152
7 330 7 280 0 323 -2 323 -15z m95 -5 c0 -8 -10 -16 -22 -18 -22 -3 -32 16
-16 32 12 11 38 2 38 -14z m-727 -72 c3 -17 -16 -18 -282 -18 -241 0 -286 2
-286 14 0 22 23 24 305 22 239 -1 260 -2 263 -18z m120 0 c3 -15 -5 -18 -52
-18 -50 0 -56 2 -56 21 0 18 5 20 52 17 41 -2 54 -7 56 -20z m62 -61 c0 -11
-71 -15 -371 -21 -205 -3 -374 -4 -377 -2 -2 3 -2 12 1 21 6 13 52 15 377 15
302 0 370 -2 370 -13z m1140 -62 c0 -13 -77 -15 -657 -13 -514 2 -657 6 -661
16 -3 9 133 12 657 12 582 0 661 -2 661 -15z m105 -5 c0 -22 -39 -19 -43 3 -3
15 1 18 20 15 12 -2 23 -10 23 -18z m-1725 -5 c0 -13 -22 -15 -135 -15 -113 0
-135 2 -135 15 0 13 22 15 135 15 113 0 135 -2 135 -15z m1421 -45 c170 0 199
-2 199 -15 0 -13 -65 -15 -527 -15 -291 0 -741 -3 -1000 -7 -437 -6 -473 -5
-473 10 0 10 1 18 3 19 5 3 1513 15 1556 11 24 -1 133 -3 242 -3z m309 -5 c0
-10 -10 -15 -30 -15 -29 0 -38 9 -23 23 13 13 53 7 53 -8z m-1955 -85 c0 -12
-18 -16 -87 -18 -72 -2 -88 0 -88 12 0 21 17 25 100 23 59 -2 75 -5 75 -17z
m325 -65 c0 -13 -37 -15 -275 -15 -238 0 -275 2 -275 15 0 13 37 15 275 15
238 0 275 -2 275 -15z m-576 -14 c8 -12 -18 -21 -60 -21 -24 0 -34 5 -34 15 0
11 12 15 44 15 25 0 47 -4 50 -9z m-694 -51 c52 -18 100 -37 105 -42 13 -12
-30 -2 -125 30 -99 33 -265 42 -336 18 -49 -17 -64 -16 -42 1 32 25 79 32 188
29 99 -3 128 -8 210 -36z m3809 20 c54 -25 47 -39 -9 -16 -47 19 -168 21 -238
5 -26 -6 -91 -24 -145 -41 -119 -35 -150 -32 -47 5 192 69 352 86 439 47z
m-276 -198 l147 -3 0 -74 c0 -62 -3 -76 -19 -84 -10 -6 -22 -7 -26 -3 -5 4 -5
2 -1 -5 7 -14 -35 -45 -83 -61 -24 -9 -207 -12 -634 -12 -330 0 -598 2 -596 4
4 4 454 19 559 19 25 0 97 -2 160 -5 63 -3 95 -3 70 1 -27 4 30 8 145 11 151
5 99 7 -250 10 l-440 5 475 5 475 5 -460 5 -460 5 500 5 c435 5 395 5 -300 6
-440 0 -744 -3 -675 -6 114 -5 96 -11 -35 -12 l-50 0 45 -7 45 -6 -42 -8 c-66
-11 -51 -26 30 -30 39 -1 -70 -3 -243 -3 -173 0 -274 2 -225 5 l90 5 -95 6
-95 6 130 3 c107 3 121 5 80 12 -46 7 -376 3 -472 -6 -24 -2 -43 0 -43 6 0 10
206 15 525 12 l200 -1 -157 8 c-86 4 -252 5 -370 1 -117 -3 -253 -4 -303 -1
l-90 5 105 5 c58 4 -205 6 -585 6 -464 0 -613 -2 -455 -6 129 -4 382 -5 563
-3 228 3 327 1 327 -6 0 -6 19 -11 42 -11 23 0 38 -3 35 -6 -4 -4 -56 -1 -116
6 -79 9 -156 10 -278 4 -156 -8 -162 -9 -83 -14 47 -3 -7 -5 -120 -5 -136 0
-178 2 -125 6 58 5 47 5 -39 3 -66 -2 -185 -5 -265 -6 -135 -1 -128 -2 79 -9
322 -10 375 -10 670 -5 164 3 252 2 230 -4 -24 -6 -11 -7 45 -3 44 4 91 6 105
5 77 -5 273 -4 297 2 19 5 23 4 14 -3 -11 -7 -9 -10 10 -14 13 -2 -345 -4
-796 -3 l-820 1 -45 24 c-25 13 -60 35 -77 49 -32 23 -33 27 -33 93 l0 69 218
2 c298 4 3402 4 3585 0z m-2630 -199 c-13 -2 -33 -2 -45 0 -13 2 -3 4 22 4 25
0 35 -2 23 -4z m257 -3 c0 -5 -13 -10 -29 -10 -17 0 -33 5 -36 10 -4 6 8 10
29 10 20 0 36 -4 36 -10z m1197 4 c-3 -3 -12 -4 -19 -1 -8 3 -5 6 6 6 11 1 17
-2 13 -5z m-130 -40 c-3 -3 -12 -4 -19 -1 -8 3 -5 6 6 6 11 1 17 -2 13 -5z
m1300 -450 c-3 -3 -12 -4 -19 -1 -8 3 -5 6 6 6 11 1 17 -2 13 -5z m-3387 -38
c0 -2 -7 -7 -16 -10 -8 -3 -12 -2 -9 4 6 10 25 14 25 6z m75 -16 c25 -11 -1
-11 -35 0 -20 6 -21 8 -5 8 11 0 29 -3 40 -8z m3118 3 c-7 -2 -19 -2 -25 0 -7
3 -2 5 12 5 14 0 19 -2 13 -5z m-3040 -20 c-7 -2 -21 -2 -30 0 -10 3 -4 5 12
5 17 0 24 -2 18 -5z m94 -9 c-3 -3 -12 -4 -19 -1 -8 3 -5 6 6 6 11 1 17 -2 13
-5z m281 -1 c-10 -2 -26 -2 -35 0 -10 3 -2 5 17 5 19 0 27 -2 18 -5z m2549 1
c-3 -3 -12 -4 -19 -1 -8 3 -5 6 6 6 11 1 17 -2 13 -5z m-160 -50 c-3 -3 -12
-4 -19 -1 -8 3 -5 6 6 6 11 1 17 -2 13 -5z m-227 -54 c-8 -5 -22 -9 -30 -9
-10 0 -8 3 5 9 27 12 43 12 25 0z m-53 -16 c-3 -3 -12 -4 -19 -1 -8 3 -5 6 6
6 11 1 17 -2 13 -5z m1008 -134 c-3 -5 -12 -10 -18 -10 -7 0 -6 4 3 10 19 12
23 12 15 0z m-3935 -40 c-17 -22 -34 -40 -37 -40 -2 0 10 18 27 40 17 22 34
40 37 40 2 0 -10 -18 -27 -40z m3910 5 c0 -1 -6 -7 -13 -13 -10 -8 -13 -6 -13
7 0 11 6 17 13 14 7 -3 13 -6 13 -8z m-1280 -20 c0 -8 -4 -15 -10 -15 -5 0 -7
7 -4 15 4 8 8 15 10 15 2 0 4 -7 4 -15z m1391 -2 c13 -16 12 -17 -3 -4 -17 13
-22 21 -14 21 2 0 10 -8 17 -17z m-15 -25 l29 -33 -32 29 c-18 17 -33 31 -33
33 0 8 8 1 36 -29z m-60 10 c3 -4 -1 -5 -10 -4 -8 1 -18 5 -22 8 -3 4 1 5 10
4 8 -1 18 -5 22 -8z m-4070 -83 c-11 -8 -16 -15 -11 -15 5 0 4 -5 -3 -12 -9
-9 -15 -9 -24 1 -11 10 -9 11 6 5 13 -5 17 -4 12 4 -3 6 2 15 11 21 26 15 31
13 9 -4z m-26 -61 c0 -2 -9 0 -20 6 -11 6 -20 13 -20 16 0 2 9 0 20 -6 11 -6
20 -13 20 -16z"/>
<path d="M2348 1633 c7 -3 16 -2 19 1 4 3 -2 6 -13 5 -11 0 -14 -3 -6 -6z"/>
<path d="M2498 1633 c56 -2 148 -2 205 0 56 1 10 3 -103 3 -113 0 -159 -2
-102 -3z"/>
<path d="M2978 1633 c12 -2 32 -2 45 0 12 2 2 4 -23 4 -25 0 -35 -2 -22 -4z"/>
<path d="M6018 1613 c12 -2 30 -2 40 0 9 3 -1 5 -23 4 -22 0 -30 -2 -17 -4z"/>
<path d="M4493 1603 c9 -2 23 -2 30 0 6 3 -1 5 -18 5 -16 0 -22 -2 -12 -5z"/>
<path d="M1700 3820 c0 -5 16 -10 35 -10 99 0 303 -63 420 -130 57 -32 65 -35
65 -20 0 29 -255 138 -374 159 -75 14 -146 14 -146 1z"/>
<path d="M6583 3811 c-100 -29 -188 -78 -255 -141 -34 -33 -59 -63 -55 -67 4
-4 31 16 60 44 96 94 239 154 372 157 49 0 76 5 79 14 8 19 -126 14 -201 -7z"/>
<path d="M263 3733 c9 -2 23 -2 30 0 6 3 -1 5 -18 5 -16 0 -22 -2 -12 -5z"/>
<path d="M151 3674 c0 -11 3 -14 6 -6 3 7 2 16 -1 19 -3 4 -6 -2 -5 -13z"/>
<path d="M475 3650 c3 -5 11 -10 16 -10 6 0 7 5 4 10 -3 6 -11 10 -16 10 -6 0
-7 -4 -4 -10z"/>
<path d="M180 3596 c0 -2 8 -10 18 -17 15 -13 16 -12 3 4 -13 16 -21 21 -21
13z"/>
<path d="M1550 3458 c-81 -124 -154 -308 -130 -332 6 -6 11 -4 13 5 32 110 45
145 78 211 21 43 52 96 69 119 31 43 37 59 21 59 -5 0 -28 -28 -51 -62z"/>
<path d="M6860 3502 c0 -4 19 -26 41 -47 73 -70 189 -268 189 -322 0 -23 14
-31 25 -14 9 15 -34 119 -83 199 -61 102 -172 220 -172 184z"/>
<path d="M545 3371 c-3 -5 -2 -12 3 -15 5 -3 9 1 9 9 0 17 -3 19 -12 6z"/>
<path d="M288 3293 c7 -3 16 -2 19 1 4 3 -2 6 -13 5 -11 0 -14 -3 -6 -6z"/>
<path d="M896 3060 c32 -33 60 -60 61 -60 1 0 -1 7 -4 17 -5 12 -3 14 7 8 9
-5 11 -4 6 4 -4 6 -11 9 -16 6 -5 -3 -30 15 -55 40 -25 25 -48 45 -52 45 -3 0
21 -27 53 -60z"/>
<path d="M976 3005 c-9 -26 -7 -32 5 -12 6 10 9 21 6 23 -2 3 -7 -2 -11 -11z"/>
<path d="M1005 2960 c-3 -5 -1 -10 4 -10 6 0 11 5 11 10 0 6 -2 10 -4 10 -3 0
-8 -4 -11 -10z"/>
<path d="M300 2886 c0 -2 8 -10 18 -17 15 -13 16 -12 3 4 -13 16 -21 21 -21
13z"/>
<path d="M1215 2622 c-20 -14 -65 -89 -104 -173 -48 -105 -85 -225 -106 -343
-17 -101 -20 -256 -5 -256 6 0 10 28 10 63 0 81 23 232 51 332 32 116 112 294
157 347 15 18 13 42 -3 30z"/>
<path d="M7265 2523 c67 -171 89 -306 90 -535 0 -144 3 -188 13 -188 12 0 17
99 12 285 -4 166 -75 455 -111 455 -7 0 -8 -7 -4 -17z"/>
<path d="M978 1539 c-10 -5 -18 -18 -18 -28 0 -21 57 -78 67 -67 4 4 -6 18
-22 32 -21 18 -26 27 -17 36 8 8 27 1 74 -28 149 -93 363 -184 433 -184 41 0
20 17 -37 30 -98 22 -192 63 -325 142 -72 43 -133 78 -135 78 -2 0 -11 -5 -20
-11z"/>
<path d="M820 1219 c37 -32 177 -104 223 -115 17 -4 27 -2 27 5 0 6 -4 11 -9
11 -5 0 -30 10 -57 22 -27 12 -55 21 -63 19 -7 -1 -10 2 -6 8 3 6 1 11 -5 11
-6 0 -36 16 -66 35 -67 43 -92 45 -44 4z"/>
</g>
</svg>
